<svg xmlns="http://www.w3.org/2000/svg" xmlns:xlink="http://www.w3.org/1999/xlink" width="77" height="71" viewBox="0 0 77 71"><defs><style>.a{fill:#e6dbd3;}.b{clip-path:url(#a);}.c{fill:#3c5b50;}.d{fill:#80ad9d;}</style><clipPath id="a"><rect class="a" width="77" height="71" rx="6" transform="translate(819 187)"/></clipPath></defs><g class="b" transform="translate(896 258) rotate(180)"><g transform="translate(1915.212 254.608) rotate(149)"><path class="c" d="M3964.426,4502.727s15.585,13.787,29.672,8.092,9.591-22.479,9.591-22.479Z" transform="translate(1182.807 6597.295) rotate(-141)"/><path class="d" d="M3964.426,4502.727s15.585,13.787,29.672,8.092,9.591-22.479,9.591-22.479Z" transform="matrix(-0.087, -0.996, 0.996, -0.087, -3205.834, 4943.991)"/></g><g transform="matrix(-0.966, 0.259, -0.259, -0.966, 1879.823, 525.167)"><path class="c" d="M3964.426,4502.727s15.585,13.787,29.672,8.092,9.591-22.479,9.591-22.479Z" transform="translate(1182.807 6597.295) rotate(-141)"/><path class="d" d="M3964.426,4502.727s15.585,13.787,29.672,8.092,9.591-22.479,9.591-22.479Z" transform="matrix(-0.087, -0.996, 0.996, -0.087, -3205.834, 4943.991)"/></g><g transform="translate(10.614 -474.381) rotate(5)"><path class="c" d="M40.049,9.528S24.458-4.254,10.343,1.462.712,23.974.712,23.974Z" transform="translate(912.679 561.485) rotate(39)"/><path class="d" d="M39.946,9.471S24.361-4.316,10.274,1.379.682,23.858.682,23.858Z" transform="matrix(0.087, 0.996, -0.996, 0.087, 919.196, 575.412)"/></g></g></svg>