<svg xmlns="http://www.w3.org/2000/svg" width="126.37" height="22.905" viewBox="0 0 126.37 22.905"><defs><style>.a{fill:#765547;}</style></defs><g transform="translate(-4399 -3949.447)"><path class="a" d="M226.833,475.922v11.5a8.249,8.249,0,0,1-1.135,4.358,8.605,8.605,0,0,1-2.952,3.01,7.432,7.432,0,0,1-3.926,1.109,5.116,5.116,0,0,1-3.733-1.494,5.442,5.442,0,0,1-1.359-3.483v-15h-2.6v15.766a6.4,6.4,0,0,0,6.805,6.477,10.5,10.5,0,0,0,4-.781,10.1,10.1,0,0,0,3.322-2.124,7.571,7.571,0,0,0,1.671-2.26l.187,4.561h2.317v-21.64Zm17.24.161a11.286,11.286,0,0,0-3.468,2.218,8.387,8.387,0,0,0-1.994,2.775l-.219-5.155h-2.26v21.64h2.6V486.106a7.725,7.725,0,0,1,1.182-4.191,8.885,8.885,0,0,1,3.218-2.952,9.19,9.19,0,0,1,4.5-1.1l.115-2.557A9.767,9.767,0,0,0,244.073,476.083Zm35.615,2.718a8.475,8.475,0,0,1,4.457-1.224h.193v-2.156h-.37a11.118,11.118,0,0,0-5.608,1.463,11.4,11.4,0,0,0-4.119,4.015,10.957,10.957,0,0,0-1.546,5.811,11.153,11.153,0,0,0,1.489,5.8,10.807,10.807,0,0,0,4.087,4.015,11.865,11.865,0,0,0,5.92,1.479l.146-.016v-2.2a9,9,0,0,1-4.587-1.229,8.8,8.8,0,0,1-3.28-3.291,9.211,9.211,0,0,1,3.218-12.47Z" transform="translate(4213.374 3474.187)"/><path class="a" d="M381.178,475.883l-.25,4.712a9.849,9.849,0,0,0-3.369-3.66,9.625,9.625,0,0,0-5.462-1.713,12.951,12.951,0,0,0-6.019,1.354,10.29,10.29,0,0,0-4.207,3.926,12.878,12.878,0,0,0-.089,12.09,10.386,10.386,0,0,0,3.983,3.957,11.306,11.306,0,0,0,5.623,1.416,11.088,11.088,0,0,0,3.452-.531,11.407,11.407,0,0,0,2.984-1.448,11.742,11.742,0,0,0,2.3-1.979,8.075,8.075,0,0,0,.771-1.052v4.566h2.609v-21.64Zm-1.656,15.985a8.359,8.359,0,0,1-3.187,2.848,9.407,9.407,0,0,1-4.4,1.036,8.638,8.638,0,0,1-4.5-1.255,9.258,9.258,0,0,1-3.3-3.322,8.92,8.92,0,0,1-1.213-4.618,9.225,9.225,0,0,1,1.213-4.811,8.527,8.527,0,0,1,3.275-3.176,8.944,8.944,0,0,1,4.473-1.135,9.159,9.159,0,0,1,4.1.927,9.388,9.388,0,0,1,3.171,2.557,6.064,6.064,0,0,1,1.744,3.645v3.1A7.487,7.487,0,0,1,379.522,491.868Z" transform="translate(4141.865 3474.225)"/><path class="a" d="M173.545,498.113a11.677,11.677,0,0,1-5.919-1.491,10.57,10.57,0,0,1-4.029-4.03,11.421,11.421,0,0,1-1.446-5.727,10.99,10.99,0,0,1,1.535-5.7,11.584,11.584,0,0,1,4.133-4.1,11.125,11.125,0,0,1,5.786-1.535,9.523,9.523,0,0,1,6.435,2.243c5.063,4.354,5.564,12.088-.413,15.719a8.276,8.276,0,0,1-4.443,1.181,6.9,6.9,0,0,1-4.62-1.594,10.178,10.178,0,0,1-2.6-3.32l13.417-5.181a8.348,8.348,0,0,0-.487-1.491,10.676,10.676,0,0,0-.709-1.358,10.261,10.261,0,0,0-2.11-2.421,6.961,6.961,0,0,0-4.635-1.594,8.431,8.431,0,0,0-4.443,1.21,9.042,9.042,0,0,0-3.144,3.232,8.6,8.6,0,0,0-1.063,3.026,9.254,9.254,0,0,0,4.162,9.417,8.566,8.566,0,0,0,4.649,1.255h.089v2.258Z" transform="translate(4236.849 3474.077)"/><path class="a" d="M295.435,498.113a11.638,11.638,0,0,1-5.919-1.491,10.566,10.566,0,0,1-4.029-4.03,11.273,11.273,0,0,1-1.446-5.727,10.848,10.848,0,0,1,1.535-5.7,11.469,11.469,0,0,1,4.133-4.1,11.049,11.049,0,0,1,5.785-1.535,9.551,9.551,0,0,1,6.436,2.243c5.048,4.354,5.55,12.088-.413,15.719a8.327,8.327,0,0,1-4.458,1.181,6.921,6.921,0,0,1-4.62-1.594,10.363,10.363,0,0,1-2.6-3.32l13.417-5.181a9.787,9.787,0,0,0-.472-1.491,9.208,9.208,0,0,0-.723-1.358,9.631,9.631,0,0,0-2.111-2.421,6.933,6.933,0,0,0-4.635-1.594,8.383,8.383,0,0,0-4.428,1.21,9.091,9.091,0,0,0-3.158,3.232,8.909,8.909,0,0,0-1.063,3.026,9.279,9.279,0,0,0,4.162,9.417,8.655,8.655,0,0,0,4.664,1.255h.089v2.258Z" transform="translate(4178.426 3474.077)"/></g></svg>