<svg xmlns="http://www.w3.org/2000/svg" width="400.7" height="182.194" viewBox="0 0 400.7 182.194"><defs><style>.a,.c{fill:#765547;}.b{fill:#b7a79d;}.b,.c{fill-rule:evenodd;}</style></defs><g transform="translate(-1071 -187.159)"><g transform="translate(908.849 -221.701)"><path class="a" d="M260.924,477.267v36.455a26.155,26.155,0,0,1-3.6,13.819,27.284,27.284,0,0,1-9.361,9.543,23.564,23.564,0,0,1-12.449,3.517c-5.283-.248-9.213-1.833-11.838-4.738a17.254,17.254,0,0,1-4.309-11.045V477.267h-8.239V527.26c.248,6.076,2.245,11.045,6.142,14.826q5.746,5.7,15.437,5.712a33.3,33.3,0,0,0,12.68-2.477,32.013,32.013,0,0,0,10.534-6.736,24.007,24.007,0,0,0,5.3-7.165l.594,14.463h7.347V477.267Zm54.665.512a35.786,35.786,0,0,0-11,7.033,26.6,26.6,0,0,0-6.323,8.8l-.693-16.345h-7.165v68.617h8.239V509.561A24.5,24.5,0,0,1,302.4,496.27a28.174,28.174,0,0,1,10.2-9.361,29.139,29.139,0,0,1,14.281-3.5l.363-8.107A30.971,30.971,0,0,0,315.589,477.778Zm112.93,8.618a26.874,26.874,0,0,1,14.133-3.88h.611v-6.835h-1.172a35.252,35.252,0,0,0-17.782,4.639,36.142,36.142,0,0,0-13.06,12.729,34.743,34.743,0,0,0-4.9,18.425,35.364,35.364,0,0,0,4.722,18.392A34.268,34.268,0,0,0,424.028,542.6a37.622,37.622,0,0,0,18.772,4.689l.462-.049V540.27a28.531,28.531,0,0,1-14.545-3.9,27.918,27.918,0,0,1-10.4-10.435,29.205,29.205,0,0,1,10.2-39.542Z" transform="translate(31.886 43.255)"/><path class="a" d="M426.459,477.319l-.793,14.942a31.23,31.23,0,0,0-10.682-11.607,30.518,30.518,0,0,0-17.319-5.432,41.066,41.066,0,0,0-19.086,4.293,32.627,32.627,0,0,0-13.34,12.449c-3.286,5.432-4.92,11.937-4.92,19.565a37.11,37.11,0,0,0,4.639,18.772,32.932,32.932,0,0,0,12.63,12.548,35.849,35.849,0,0,0,17.831,4.491,35.164,35.164,0,0,0,10.946-1.684,36.169,36.169,0,0,0,9.46-4.59,37.226,37.226,0,0,0,7.3-6.274,25.607,25.607,0,0,0,2.443-3.335v14.479h8.272V477.319Zm-5.25,50.686a26.505,26.505,0,0,1-10.1,9.031,29.827,29.827,0,0,1-13.951,3.285,27.39,27.39,0,0,1-14.281-3.979A29.358,29.358,0,0,1,372.4,525.809a28.286,28.286,0,0,1-3.847-14.645,29.253,29.253,0,0,1,3.847-15.255,27.039,27.039,0,0,1,10.385-10.071,28.358,28.358,0,0,1,14.182-3.6,29.04,29.04,0,0,1,13.01,2.939,29.766,29.766,0,0,1,10.055,8.107c2.757,3.368,5.531,7.165,5.531,11.557v9.824A23.74,23.74,0,0,1,421.209,528.005Z" transform="translate(129.012 43.203)"/><path class="a" d="M198.28,547.136a37.025,37.025,0,0,1-18.767-4.727,33.514,33.514,0,0,1-12.776-12.777,36.215,36.215,0,0,1-4.587-18.158,34.848,34.848,0,0,1,4.867-18.065,36.73,36.73,0,0,1,13.1-13.01,35.275,35.275,0,0,1,18.346-4.867c8.1,0,14.929,2.386,20.4,7.112,16.053,13.806,17.643,38.33-1.311,49.843a26.244,26.244,0,0,1-14.087,3.745,21.867,21.867,0,0,1-14.65-5.055,32.273,32.273,0,0,1-8.237-10.529l42.542-16.428a26.479,26.479,0,0,0-1.544-4.727,33.854,33.854,0,0,0-2.247-4.306,32.534,32.534,0,0,0-6.692-7.676,22.073,22.073,0,0,0-14.7-5.054,26.734,26.734,0,0,0-14.087,3.837,28.673,28.673,0,0,0-9.969,10.25,27.267,27.267,0,0,0-3.37,9.594A29.342,29.342,0,0,0,183.727,536a27.161,27.161,0,0,0,14.742,3.979h.281v7.16Z" transform="translate(0 43.404)"/><path class="a" d="M320.17,547.136a36.9,36.9,0,0,1-18.767-4.727,33.5,33.5,0,0,1-12.776-12.777,35.744,35.744,0,0,1-4.587-18.158,34.4,34.4,0,0,1,4.867-18.065,36.365,36.365,0,0,1,13.1-13.01,35.035,35.035,0,0,1,18.344-4.867q12.145,0,20.407,7.112c16.005,13.806,17.6,38.33-1.311,49.843a26.406,26.406,0,0,1-14.134,3.745,21.947,21.947,0,0,1-14.648-5.055,32.858,32.858,0,0,1-8.237-10.529l42.542-16.428a31.042,31.042,0,0,0-1.5-4.727,29.189,29.189,0,0,0-2.293-4.306,30.538,30.538,0,0,0-6.693-7.676,21.985,21.985,0,0,0-14.7-5.054,26.58,26.58,0,0,0-14.04,3.837,28.826,28.826,0,0,0-10.015,10.25,28.249,28.249,0,0,0-3.37,9.594A29.423,29.423,0,0,0,305.569,536a27.441,27.441,0,0,0,14.788,3.979h.282v7.16Z" transform="translate(79.353 43.404)"/><path class="b" d="M261.614,457.9h77.362a4.475,4.475,0,0,1,4.446,4.446h0a4.435,4.435,0,0,1-4.446,4.4H261.614a4.435,4.435,0,0,1-4.446-4.4h0a4.475,4.475,0,0,1,4.446-4.446Z" transform="translate(61.858 31.926)"/><path class="a" d="M302.612,498.811a46.453,46.453,0,0,1-23.588-5.9,42.309,42.309,0,0,1-16.053-16.053,45.479,45.479,0,0,1-5.8-22.792,43.437,43.437,0,0,1,6.132-22.7,46.039,46.039,0,0,1,16.474-16.38,44.614,44.614,0,0,1,23.025-6.13q15.3,0,25.647,8.939c20.124,17.362,22.137,48.157-1.638,62.572a33.688,33.688,0,0,1-17.739,4.773c-7.253-.046-13.385-2.153-18.392-6.411a40.094,40.094,0,0,1-10.342-13.2L333.78,444.9a36.676,36.676,0,0,0-1.919-5.944,41.15,41.15,0,0,0-11.278-15.023c-5.008-4.212-11.139-6.318-18.44-6.318a33.409,33.409,0,0,0-17.691,4.775,36.732,36.732,0,0,0-12.543,12.87,35.764,35.764,0,0,0-4.212,12.028,36.882,36.882,0,0,0,16.568,37.534,34.156,34.156,0,0,0,18.533,5.007h.375v8.987Z" transform="translate(61.858 0)"/><path class="c" d="M270.215,422.073a15.647,15.647,0,0,0,.187,3.324c.467,3.37.842,7.253,2.62,10.3,4.961,8.518,10.624,4.4,15.071,5.334,1.5.329,3.416,2.341,4.352,4.119.982-1.778,2.855-3.791,4.4-4.119,4.446-.935,10.109,3.183,15.023-5.334,1.778-3.043,2.2-6.926,2.668-10.3a15.772,15.772,0,0,0,.14-3.324c-4.634,2.2-12.076-3.977-18.908-.187-1.918,1.029-3.324,2.9-3.324,6.178,0-3.277-1.357-5.15-3.276-6.178-6.834-3.791-14.275,2.386-18.954.187Zm22.229,19.142a7.907,7.907,0,0,0-3.885-2.434c-2.666-.609-5.054.281-7.674.094-2.856-.14-4.446-1.966-5.851-4.354-1.544-2.666-1.919-6.411-2.34-9.454,0-.093-.046-.14-.046-.233a19.93,19.93,0,0,0,4.819-.7c4.821-1.169,10.3-2.574,12.683,3.043.655,1.5,1.872,5.8,2.293,6.551.469-.748,1.686-5.054,2.293-6.551,2.387-5.617,7.862-4.212,12.683-3.043a20.3,20.3,0,0,0,4.821.7v.233c-.469,3.043-.8,6.787-2.387,9.454-1.357,2.387-2.949,4.213-5.8,4.354-2.62.187-5.008-.7-7.722-.094a8.122,8.122,0,0,0-3.885,2.434Z" transform="translate(70.341 7.659)"/><path class="c" d="M279.2,431.927a3.838,3.838,0,1,0-3.837-3.839,3.854,3.854,0,0,0,3.837,3.839Z" transform="translate(73.706 10.021)"/><path class="c" d="M291.214,431.927a3.838,3.838,0,1,0-3.885-3.839,3.855,3.855,0,0,0,3.885,3.839Z" transform="translate(81.494 10.021)"/></g></g></svg>